<svg width="18" height="15" viewBox="0 0 18 15" fill="none" xmlns="http://www.w3.org/2000/svg">
<path d="M17.2727 2.6297C16.1862 2.67833 16.2099 2.67436 16.0871 2.68435L16.7306 0.899522C16.7306 0.899522 14.722 1.61716 14.2128 1.74554C12.8755 0.578138 10.8877 0.526558 9.46657 1.37488C8.30282 2.06974 7.67818 3.26299 7.88652 4.6577C5.62161 4.35245 3.7133 3.30971 2.20666 1.55189L1.73014 0.996027L1.37407 1.63111C0.924043 2.43361 0.774604 3.35118 0.953167 4.21473C1.02644 4.56901 1.15097 4.9069 1.32347 5.22329L0.914687 5.06945L0.866192 5.73282C0.817038 6.40669 1.04805 7.19332 1.48424 7.83685C1.60706 8.01809 1.7652 8.21711 1.96563 8.41345L1.75439 8.38197L2.01215 9.1421C2.35096 10.1408 3.05467 10.9135 3.9679 11.343C3.05585 11.7189 2.31907 11.9588 1.10801 12.3457L0 12.6995L1.02341 13.2429C1.41361 13.4501 2.79242 14.1422 4.15477 14.3498C7.18308 14.811 10.5926 14.4354 12.888 12.4276C14.8213 10.7365 15.4557 8.3309 15.3239 5.82753C15.304 5.44855 15.4109 5.08685 15.6249 4.80924C16.0536 4.25338 17.2701 2.63341 17.2727 2.6297ZM14.8157 4.22049C14.4602 4.68138 14.2822 5.27001 14.3141 5.87771C14.4471 8.40283 13.7397 10.3611 12.2114 11.6978C10.4262 13.2594 7.54666 13.8724 4.31146 13.3795C3.72556 13.2903 3.12003 13.0905 2.61887 12.8909C3.63424 12.5516 4.41833 12.2492 5.68461 11.6671L7.45231 10.8545L5.50064 10.7331C4.56579 10.675 3.78737 10.235 3.30887 9.52057C3.56294 9.50623 3.80792 9.4663 4.05185 9.40026L5.91324 8.89674L4.0363 8.45031C3.12425 8.23337 2.60437 7.70336 2.32882 7.29686C2.14789 7.02975 2.02968 6.7561 1.95878 6.50384C2.14696 6.55286 2.36638 6.5878 2.72021 6.62184L4.45747 6.78874L3.08102 5.74588C2.08924 4.99457 1.6918 3.86583 1.98316 2.78072C5.07842 5.89882 8.71265 5.66447 9.07847 5.7469C8.99796 4.98728 8.99585 4.98549 8.97476 4.91317C8.50629 3.30472 9.53299 2.48801 9.99606 2.21155C10.9633 1.63419 12.4987 1.54715 13.5622 2.49838C13.7919 2.70367 14.1025 2.78444 14.3932 2.7143C14.6541 2.65133 14.8682 2.58464 15.0779 2.51207L14.6414 3.7226L15.1986 3.72299C15.0935 3.85994 14.9673 4.02389 14.8157 4.22049Z" fill="white"/>
</svg>
