<svg width="103" height="27" viewBox="0 0 103 27" fill="none" xmlns="http://www.w3.org/2000/svg">
<g clip-path="url(#clip0)">
<g clip-path="url(#clip1)">
<rect x="3" y="3" width="26" height="21" rx="1" stroke="white" stroke-width="2" stroke-linejoin="round"/>
<line x1="2" y1="7.5" x2="32" y2="7.5" stroke="white" stroke-linejoin="round"/>
<path d="M11.5 11L7 15.5L11.5 20" stroke="white"/>
<path d="M20.5 11L25 15.5L20.5 20" stroke="white"/>
<path d="M12.9605 21L19.0396 10" stroke="white"/>
<circle cx="5.5" cy="5.5" r="0.5" fill="white"/>
<circle cx="7.5" cy="5.5" r="0.5" fill="white"/>
<circle cx="9.5" cy="5.5" r="0.5" fill="white"/>
</g>
<g filter="url(#filter0_d)">
<path d="M32.2726 18.012C32.5126 16.932 32.7406 15.876 32.9566 14.844C33.0446 14.412 33.1366 13.956 33.2326 13.476C33.3286 12.996 33.4206 12.524 33.5086 12.06C33.5966 11.596 33.6806 11.148 33.7606 10.716C33.8406 10.284 33.9086 9.888 33.9646 9.528C34.1966 9.456 34.4246 9.396 34.6486 9.348C34.8726 9.292 35.1006 9.244 35.3326 9.204C35.5726 9.164 35.7966 9.144 36.0046 9.144C36.3646 9.144 36.6646 9.204 36.9046 9.324C37.1526 9.444 37.3526 9.608 37.5046 9.816C37.6566 10.016 37.7646 10.252 37.8286 10.524C37.8926 10.796 37.9246 11.088 37.9246 11.4C37.9246 11.848 37.8406 12.28 37.6726 12.696C37.5126 13.112 37.2926 13.484 37.0126 13.812C36.7406 14.132 36.4246 14.388 36.0646 14.58C35.7126 14.772 35.3446 14.868 34.9606 14.868H34.8286C34.7646 15.14 34.7046 15.436 34.6486 15.756C34.5926 16.076 34.5446 16.372 34.5046 16.644C34.4486 16.964 34.3966 17.284 34.3486 17.604L32.2726 18.012ZM35.6206 10.596C35.5326 11.124 35.4446 11.624 35.3566 12.096C35.2686 12.568 35.1726 13.072 35.0686 13.608C35.1966 13.576 35.3286 13.504 35.4646 13.392C35.6086 13.272 35.7406 13.12 35.8606 12.936C35.9806 12.744 36.0766 12.524 36.1486 12.276C36.2206 12.028 36.2566 11.768 36.2566 11.496C36.2566 11.2 36.1886 10.976 36.0526 10.824C35.9246 10.672 35.7806 10.596 35.6206 10.596ZM36.9515 18.012L38.5235 9.48L42.3155 9.156C42.2595 9.332 42.2115 9.512 42.1715 9.696C42.1315 9.848 42.0915 10.008 42.0515 10.176C42.0195 10.336 41.9915 10.48 41.9675 10.608C41.8875 10.616 41.7715 10.624 41.6195 10.632C41.4755 10.632 41.3195 10.636 41.1515 10.644C40.9835 10.644 40.8115 10.644 40.6355 10.644C40.4675 10.644 40.3195 10.644 40.1915 10.644L39.7715 12.792C40.0195 12.776 40.2515 12.764 40.4675 12.756C40.6435 12.748 40.8235 12.744 41.0075 12.744C41.1915 12.744 41.3275 12.74 41.4155 12.732C41.3835 12.956 41.3515 13.176 41.3195 13.392C41.2955 13.608 41.2635 13.828 41.2235 14.052C41.1435 14.06 41.0115 14.068 40.8275 14.076C40.6515 14.076 40.4715 14.08 40.2875 14.088C40.0795 14.096 39.8515 14.104 39.6035 14.112L39.1955 16.32L40.9475 16.044L40.8275 17.412L36.9515 18.012ZM42.0253 18.012C42.2093 17.132 42.3853 16.264 42.5533 15.408C42.6253 15.048 42.6973 14.672 42.7693 14.28C42.8413 13.888 42.9093 13.504 42.9733 13.128C43.0453 12.744 43.1053 12.376 43.1533 12.024C43.2093 11.664 43.2573 11.336 43.2973 11.04C43.1133 11.016 42.9253 11.008 42.7333 11.016C42.5493 11.024 42.3653 11 42.1813 10.944C42.1893 10.816 42.1933 10.668 42.1933 10.5C42.1933 10.332 42.1973 10.164 42.2053 9.996C42.2133 9.812 42.2213 9.616 42.2293 9.408C42.4373 9.424 42.6453 9.436 42.8533 9.444C43.0613 9.452 43.2693 9.456 43.4773 9.456C43.8853 9.456 44.2773 9.448 44.6533 9.432C45.0373 9.408 45.3893 9.384 45.7093 9.36C46.0373 9.328 46.3573 9.292 46.6693 9.252L46.5373 9.9C46.4973 10.084 46.4573 10.272 46.4173 10.464C46.3853 10.656 46.3533 10.82 46.3213 10.956C46.1453 11.004 45.9653 11.04 45.7813 11.064C45.6053 11.08 45.4293 11.104 45.2533 11.136C45.1973 11.408 45.1373 11.712 45.0733 12.048C45.0093 12.376 44.9453 12.72 44.8813 13.08C44.8253 13.432 44.7693 13.792 44.7133 14.16C44.6573 14.528 44.6013 14.88 44.5453 15.216C44.4173 16.008 44.2973 16.828 44.1853 17.676L42.0253 18.012ZM47.333 17.76C47.261 17.76 47.117 17.772 46.901 17.796C46.693 17.812 46.477 17.836 46.253 17.868C46.029 17.892 45.825 17.916 45.641 17.94C45.465 17.964 45.369 17.98 45.353 17.988C45.433 17.644 45.513 17.264 45.593 16.848C45.681 16.424 45.769 15.984 45.857 15.528C45.945 15.064 46.029 14.596 46.109 14.124C46.189 13.652 46.265 13.196 46.337 12.756C46.505 11.732 46.673 10.68 46.841 9.6L48.713 9.3C48.529 10.372 48.349 11.424 48.173 12.456C48.101 12.896 48.025 13.352 47.945 13.824C47.873 14.296 47.797 14.764 47.717 15.228C47.645 15.692 47.577 16.144 47.513 16.584C47.449 17.016 47.389 17.408 47.333 17.76ZM48.7988 18.012C48.9828 17.132 49.1588 16.264 49.3268 15.408C49.3988 15.048 49.4708 14.672 49.5428 14.28C49.6148 13.888 49.6828 13.504 49.7468 13.128C49.8188 12.744 49.8788 12.376 49.9268 12.024C49.9828 11.664 50.0308 11.336 50.0708 11.04C49.8868 11.016 49.6988 11.008 49.5068 11.016C49.3228 11.024 49.1388 11 48.9548 10.944C48.9628 10.816 48.9668 10.668 48.9668 10.5C48.9668 10.332 48.9708 10.164 48.9788 9.996C48.9868 9.812 48.9948 9.616 49.0028 9.408C49.2108 9.424 49.4188 9.436 49.6268 9.444C49.8348 9.452 50.0428 9.456 50.2508 9.456C50.6588 9.456 51.0508 9.448 51.4268 9.432C51.8108 9.408 52.1628 9.384 52.4828 9.36C52.8108 9.328 53.1308 9.292 53.4428 9.252L53.3108 9.9C53.2708 10.084 53.2308 10.272 53.1908 10.464C53.1588 10.656 53.1268 10.82 53.0948 10.956C52.9188 11.004 52.7388 11.04 52.5548 11.064C52.3788 11.08 52.2028 11.104 52.0268 11.136C51.9708 11.408 51.9108 11.712 51.8468 12.048C51.7828 12.376 51.7188 12.72 51.6548 13.08C51.5988 13.432 51.5428 13.792 51.4868 14.16C51.4308 14.528 51.3748 14.88 51.3188 15.216C51.1908 16.008 51.0708 16.828 50.9588 17.676L48.7988 18.012ZM52.1624 18.012L53.7344 9.48L57.5264 9.156C57.4704 9.332 57.4224 9.512 57.3824 9.696C57.3424 9.848 57.3024 10.008 57.2624 10.176C57.2304 10.336 57.2024 10.48 57.1784 10.608C57.0984 10.616 56.9824 10.624 56.8304 10.632C56.6864 10.632 56.5304 10.636 56.3624 10.644C56.1944 10.644 56.0224 10.644 55.8464 10.644C55.6784 10.644 55.5304 10.644 55.4024 10.644L54.9824 12.792C55.2304 12.776 55.4624 12.764 55.6784 12.756C55.8544 12.748 56.0344 12.744 56.2184 12.744C56.4024 12.744 56.5384 12.74 56.6264 12.732C56.5944 12.956 56.5624 13.176 56.5304 13.392C56.5064 13.608 56.4744 13.828 56.4344 14.052C56.3544 14.06 56.2224 14.068 56.0384 14.076C55.8624 14.076 55.6824 14.08 55.4984 14.088C55.2904 14.096 55.0624 14.104 54.8144 14.112L54.4064 16.32L56.1584 16.044L56.0384 17.412L52.1624 18.012ZM58.464 18.012C58.704 16.932 58.932 15.876 59.148 14.844C59.236 14.412 59.328 13.956 59.424 13.476C59.52 12.996 59.612 12.524 59.7 12.06C59.788 11.596 59.872 11.148 59.952 10.716C60.032 10.284 60.1 9.888 60.156 9.528C60.388 9.456 60.616 9.396 60.84 9.348C61.064 9.292 61.292 9.244 61.524 9.204C61.764 9.164 61.988 9.144 62.196 9.144C62.556 9.144 62.856 9.204 63.096 9.324C63.344 9.444 63.544 9.608 63.696 9.816C63.848 10.016 63.956 10.252 64.02 10.524C64.084 10.796 64.116 11.088 64.116 11.4C64.116 11.848 64.032 12.28 63.864 12.696C63.704 13.112 63.484 13.484 63.204 13.812C62.932 14.132 62.616 14.388 62.256 14.58C61.904 14.772 61.536 14.868 61.152 14.868H61.02C60.956 15.14 60.896 15.436 60.84 15.756C60.784 16.076 60.736 16.372 60.696 16.644C60.64 16.964 60.588 17.284 60.54 17.604L58.464 18.012ZM61.812 10.596C61.724 11.124 61.636 11.624 61.548 12.096C61.46 12.568 61.364 13.072 61.26 13.608C61.388 13.576 61.52 13.504 61.656 13.392C61.8 13.272 61.932 13.12 62.052 12.936C62.172 12.744 62.268 12.524 62.34 12.276C62.412 12.028 62.448 11.768 62.448 11.496C62.448 11.2 62.38 10.976 62.244 10.824C62.116 10.672 61.972 10.596 61.812 10.596ZM63.0949 18.012C63.3109 16.948 63.5189 15.908 63.7189 14.892C63.7909 14.46 63.8709 14.012 63.9589 13.548C64.0469 13.076 64.1269 12.612 64.1989 12.156C64.2789 11.692 64.3509 11.248 64.4149 10.824C64.4869 10.392 64.5429 10 64.5829 9.648C65.0389 9.504 65.5309 9.4 66.0589 9.336C66.5869 9.264 67.1109 9.228 67.6309 9.228C67.9429 9.228 68.1989 9.264 68.3989 9.336C68.6069 9.408 68.7669 9.512 68.8789 9.648C68.9989 9.776 69.0829 9.928 69.1309 10.104C69.1789 10.28 69.2029 10.476 69.2029 10.692C69.2029 11.012 69.1469 11.328 69.0349 11.64C68.9229 11.944 68.7709 12.236 68.5789 12.516C68.3949 12.788 68.1789 13.04 67.9309 13.272C67.6909 13.496 67.4309 13.68 67.1509 13.824C67.2949 14.144 67.4469 14.496 67.6069 14.88C67.7749 15.256 67.9309 15.616 68.0749 15.96C68.2349 16.36 68.3989 16.76 68.5669 17.16L66.7069 17.808C66.5469 17.296 66.4029 16.816 66.2749 16.368C66.2189 16.184 66.1629 15.996 66.1069 15.804C66.0509 15.604 65.9989 15.416 65.9509 15.24C65.9029 15.064 65.8629 14.908 65.8309 14.772C65.7989 14.628 65.7789 14.512 65.7709 14.424L65.6149 14.472C65.5669 14.728 65.5069 15.028 65.4349 15.372C65.3709 15.716 65.3109 16.048 65.2549 16.368C65.1829 16.744 65.1109 17.124 65.0389 17.508L63.0949 18.012ZM65.9149 12.804C66.0669 12.788 66.2509 12.724 66.4669 12.612C66.6909 12.5 66.9029 12.368 67.1029 12.216C67.3029 12.056 67.4749 11.892 67.6189 11.724C67.7629 11.556 67.8349 11.408 67.8349 11.28C67.8349 11.192 67.8069 11.124 67.7509 11.076C67.6949 11.02 67.6149 10.98 67.5109 10.956C67.4149 10.924 67.3069 10.904 67.1869 10.896C67.0669 10.888 66.9429 10.884 66.8149 10.884C66.7269 10.884 66.6349 10.888 66.5389 10.896C66.4509 10.896 66.3709 10.896 66.2989 10.896L65.9149 12.804ZM70.4189 17.76C70.3469 17.76 70.2029 17.772 69.9869 17.796C69.7789 17.812 69.5629 17.836 69.3389 17.868C69.1149 17.892 68.9109 17.916 68.7269 17.94C68.5509 17.964 68.4549 17.98 68.4389 17.988C68.5189 17.644 68.5989 17.264 68.6789 16.848C68.7669 16.424 68.8549 15.984 68.9429 15.528C69.0309 15.064 69.1149 14.596 69.1949 14.124C69.2749 13.652 69.3509 13.196 69.4229 12.756C69.5909 11.732 69.7589 10.68 69.9269 9.6L71.7989 9.3C71.6149 10.372 71.4349 11.424 71.2589 12.456C71.1869 12.896 71.1109 13.352 71.0309 13.824C70.9589 14.296 70.8829 14.764 70.8029 15.228C70.7309 15.692 70.6629 16.144 70.5989 16.584C70.5349 17.016 70.4749 17.408 70.4189 17.76ZM70.8647 18.06C71.1047 16.908 71.3327 15.792 71.5487 14.712C71.6287 14.248 71.7127 13.768 71.8007 13.272C71.8967 12.776 71.9847 12.288 72.0647 11.808C72.1447 11.32 72.2167 10.856 72.2807 10.416C72.3447 9.968 72.3927 9.564 72.4247 9.204C72.5287 9.212 72.6167 9.216 72.6887 9.216C72.7607 9.216 72.8447 9.216 72.9407 9.216C73.0527 9.216 73.1887 9.216 73.3487 9.216C73.5087 9.208 73.6687 9.2 73.8287 9.192C73.9887 9.184 74.1607 9.176 74.3447 9.168C74.4567 9.728 74.5567 10.268 74.6447 10.788C74.7327 11.244 74.8207 11.712 74.9087 12.192C75.0047 12.672 75.0887 13.08 75.1607 13.416C75.1927 13.256 75.2287 13.072 75.2687 12.864C75.3087 12.648 75.3527 12.424 75.4007 12.192C75.4487 11.96 75.4927 11.728 75.5327 11.496C75.5807 11.256 75.6287 11.02 75.6767 10.788C75.7887 10.268 75.9047 9.732 76.0247 9.18L77.4887 9C77.2167 10.224 76.9767 11.384 76.7687 12.48C76.6727 12.952 76.5767 13.432 76.4807 13.92C76.3927 14.4 76.3087 14.864 76.2287 15.312C76.1487 15.752 76.0807 16.164 76.0247 16.548C75.9687 16.924 75.9247 17.24 75.8927 17.496C75.8687 17.496 75.7727 17.516 75.6047 17.556C75.4447 17.588 75.2567 17.628 75.0407 17.676C74.8327 17.724 74.6207 17.772 74.4047 17.82C74.1967 17.868 74.0407 17.912 73.9367 17.952C73.8887 17.312 73.8367 16.704 73.7807 16.128C73.7567 15.88 73.7287 15.628 73.6967 15.372C73.6727 15.108 73.6447 14.856 73.6127 14.616C73.5807 14.376 73.5487 14.152 73.5167 13.944C73.4847 13.736 73.4527 13.556 73.4207 13.404C73.3967 13.556 73.3647 13.732 73.3247 13.932C73.2847 14.132 73.2447 14.344 73.2047 14.568C73.1647 14.792 73.1247 15.028 73.0847 15.276C73.0447 15.516 73.0007 15.748 72.9527 15.972C72.8487 16.508 72.7367 17.068 72.6167 17.652L70.8647 18.06ZM81.3545 15.42C81.1625 15.86 80.9465 16.244 80.7065 16.572C80.4745 16.892 80.2265 17.164 79.9625 17.388C79.7065 17.604 79.4465 17.764 79.1825 17.868C78.9185 17.972 78.6625 18.024 78.4145 18.024C78.1665 18.024 77.9385 17.968 77.7305 17.856C77.5305 17.744 77.3545 17.576 77.2025 17.352C77.0505 17.128 76.9265 16.852 76.8305 16.524C76.7425 16.196 76.6985 15.812 76.6985 15.372C76.6985 14.62 76.8025 13.88 77.0105 13.152C77.2185 12.416 77.5105 11.756 77.8865 11.172C78.2625 10.588 78.7065 10.12 79.2185 9.768C79.7385 9.408 80.3105 9.228 80.9345 9.228C81.1265 9.228 81.3105 9.268 81.4865 9.348C81.6625 9.428 81.8145 9.54 81.9425 9.684C82.0705 9.828 82.1705 10.004 82.2425 10.212C82.3225 10.42 82.3625 10.652 82.3625 10.908C82.3625 10.956 82.3625 11.008 82.3625 11.064C82.3625 11.112 82.3585 11.164 82.3505 11.22L80.7785 11.64C80.6825 11.44 80.5705 11.34 80.4425 11.34C80.3145 11.34 80.1785 11.416 80.0345 11.568C79.8985 11.712 79.7625 11.904 79.6265 12.144C79.4905 12.376 79.3585 12.64 79.2305 12.936C79.1025 13.224 78.9905 13.516 78.8945 13.812C78.7985 14.108 78.7185 14.392 78.6545 14.664C78.5985 14.928 78.5705 15.144 78.5705 15.312C78.5705 15.568 78.6025 15.748 78.6665 15.852C78.7385 15.956 78.8305 16.008 78.9425 16.008C79.0305 16.008 79.1305 15.976 79.2425 15.912C79.3545 15.84 79.4585 15.752 79.5545 15.648C79.6505 15.536 79.7385 15.412 79.8185 15.276C79.8985 15.14 79.9545 15.004 79.9865 14.868L81.3545 15.42ZM81.2952 18.012L82.8672 9.48L86.6592 9.156C86.6032 9.332 86.5552 9.512 86.5152 9.696C86.4752 9.848 86.4352 10.008 86.3952 10.176C86.3632 10.336 86.3352 10.48 86.3112 10.608C86.2312 10.616 86.1152 10.624 85.9632 10.632C85.8192 10.632 85.6632 10.636 85.4952 10.644C85.3272 10.644 85.1552 10.644 84.9792 10.644C84.8112 10.644 84.6632 10.644 84.5352 10.644L84.1152 12.792C84.3632 12.776 84.5952 12.764 84.8112 12.756C84.9872 12.748 85.1672 12.744 85.3512 12.744C85.5352 12.744 85.6712 12.74 85.7592 12.732C85.7272 12.956 85.6952 13.176 85.6632 13.392C85.6392 13.608 85.6072 13.828 85.5672 14.052C85.4872 14.06 85.3552 14.068 85.1712 14.076C84.9952 14.076 84.8152 14.08 84.6312 14.088C84.4232 14.096 84.1952 14.104 83.9472 14.112L83.5392 16.32L85.2912 16.044L85.1712 17.412L81.2952 18.012ZM90.6051 15.036C90.6051 15.484 90.5171 15.892 90.3411 16.26C90.1731 16.62 89.9411 16.932 89.6451 17.196C89.3571 17.46 89.0131 17.664 88.6131 17.808C88.2211 17.952 87.7971 18.024 87.3411 18.024C87.0211 18.024 86.7011 17.94 86.3811 17.772C86.0611 17.596 85.7531 17.32 85.4571 16.944L86.3451 15.204C86.4011 15.308 86.4851 15.416 86.5971 15.528C86.7091 15.632 86.8331 15.724 86.9691 15.804C87.1131 15.884 87.2531 15.952 87.3891 16.008C87.5331 16.056 87.6611 16.08 87.7731 16.08C87.8691 16.08 87.9691 16.064 88.0731 16.032C88.1771 16 88.2731 15.952 88.3611 15.888C88.4491 15.824 88.5171 15.752 88.5651 15.672C88.6211 15.584 88.6491 15.484 88.6491 15.372C88.6491 15.18 88.5851 15.004 88.4571 14.844C88.3371 14.676 88.1851 14.52 88.0011 14.376C87.8171 14.224 87.6171 14.072 87.4011 13.92C87.1851 13.768 86.9851 13.608 86.8011 13.44C86.6251 13.272 86.4731 13.084 86.3451 12.876C86.2171 12.668 86.1531 12.436 86.1531 12.18C86.1531 11.764 86.2771 11.376 86.5251 11.016C86.7731 10.656 87.0811 10.348 87.4491 10.092C87.8251 9.828 88.2331 9.62 88.6731 9.468C89.1131 9.316 89.5291 9.24 89.9211 9.24C90.1371 9.24 90.3411 9.268 90.5331 9.324C90.7251 9.372 90.8891 9.456 91.0251 9.576C91.1691 9.688 91.2811 9.832 91.3611 10.008C91.4491 10.184 91.4931 10.404 91.4931 10.668C91.4931 10.78 91.4811 10.892 91.4571 11.004C91.4411 11.116 91.4251 11.236 91.4091 11.364L89.6691 11.868C89.6851 11.804 89.6971 11.74 89.7051 11.676C89.7211 11.612 89.7291 11.548 89.7291 11.484C89.7291 11.244 89.6851 11.072 89.5971 10.968C89.5171 10.856 89.4091 10.8 89.2731 10.8C89.2091 10.8 89.1291 10.824 89.0331 10.872C88.9451 10.92 88.8531 10.984 88.7571 11.064C88.6691 11.136 88.5931 11.224 88.5291 11.328C88.4651 11.432 88.4331 11.544 88.4331 11.664C88.4331 11.856 88.4851 12.016 88.5891 12.144C88.7011 12.272 88.8371 12.392 88.9971 12.504C89.1571 12.616 89.3291 12.732 89.5131 12.852C89.7051 12.964 89.8811 13.112 90.0411 13.296C90.2011 13.48 90.3331 13.712 90.4371 13.992C90.5491 14.264 90.6051 14.612 90.6051 15.036ZM95.7613 15.036C95.7613 15.484 95.6733 15.892 95.4973 16.26C95.3293 16.62 95.0973 16.932 94.8013 17.196C94.5133 17.46 94.1693 17.664 93.7693 17.808C93.3773 17.952 92.9533 18.024 92.4973 18.024C92.1773 18.024 91.8573 17.94 91.5373 17.772C91.2173 17.596 90.9093 17.32 90.6133 16.944L91.5013 15.204C91.5573 15.308 91.6413 15.416 91.7533 15.528C91.8653 15.632 91.9893 15.724 92.1253 15.804C92.2693 15.884 92.4093 15.952 92.5453 16.008C92.6893 16.056 92.8173 16.08 92.9293 16.08C93.0253 16.08 93.1253 16.064 93.2293 16.032C93.3333 16 93.4293 15.952 93.5173 15.888C93.6053 15.824 93.6733 15.752 93.7213 15.672C93.7773 15.584 93.8053 15.484 93.8053 15.372C93.8053 15.18 93.7413 15.004 93.6133 14.844C93.4933 14.676 93.3413 14.52 93.1573 14.376C92.9733 14.224 92.7733 14.072 92.5573 13.92C92.3413 13.768 92.1413 13.608 91.9573 13.44C91.7813 13.272 91.6293 13.084 91.5013 12.876C91.3733 12.668 91.3093 12.436 91.3093 12.18C91.3093 11.764 91.4333 11.376 91.6813 11.016C91.9293 10.656 92.2373 10.348 92.6053 10.092C92.9813 9.828 93.3893 9.62 93.8293 9.468C94.2693 9.316 94.6853 9.24 95.0773 9.24C95.2933 9.24 95.4973 9.268 95.6893 9.324C95.8813 9.372 96.0453 9.456 96.1813 9.576C96.3253 9.688 96.4373 9.832 96.5173 10.008C96.6053 10.184 96.6493 10.404 96.6493 10.668C96.6493 10.78 96.6373 10.892 96.6133 11.004C96.5973 11.116 96.5813 11.236 96.5653 11.364L94.8253 11.868C94.8413 11.804 94.8533 11.74 94.8613 11.676C94.8773 11.612 94.8853 11.548 94.8853 11.484C94.8853 11.244 94.8413 11.072 94.7533 10.968C94.6733 10.856 94.5653 10.8 94.4293 10.8C94.3653 10.8 94.2853 10.824 94.1893 10.872C94.1013 10.92 94.0093 10.984 93.9133 11.064C93.8253 11.136 93.7493 11.224 93.6853 11.328C93.6213 11.432 93.5893 11.544 93.5893 11.664C93.5893 11.856 93.6413 12.016 93.7453 12.144C93.8573 12.272 93.9933 12.392 94.1533 12.504C94.3133 12.616 94.4853 12.732 94.6693 12.852C94.8613 12.964 95.0373 13.112 95.1973 13.296C95.3573 13.48 95.4893 13.712 95.5933 13.992C95.7053 14.264 95.7613 14.612 95.7613 15.036ZM95.6976 18.012L97.2696 9.48L101.062 9.156C101.006 9.332 100.958 9.512 100.918 9.696C100.878 9.848 100.838 10.008 100.798 10.176C100.766 10.336 100.738 10.48 100.714 10.608C100.634 10.616 100.518 10.624 100.366 10.632C100.222 10.632 100.066 10.636 99.8976 10.644C99.7296 10.644 99.5576 10.644 99.3816 10.644C99.2136 10.644 99.0656 10.644 98.9376 10.644L98.5176 12.792C98.7656 12.776 98.9976 12.764 99.2136 12.756C99.3896 12.748 99.5696 12.744 99.7536 12.744C99.9376 12.744 100.074 12.74 100.162 12.732C100.13 12.956 100.098 13.176 100.066 13.392C100.042 13.608 100.01 13.828 99.9696 14.052C99.8896 14.06 99.7576 14.068 99.5736 14.076C99.3976 14.076 99.2176 14.08 99.0336 14.088C98.8256 14.096 98.5976 14.104 98.3496 14.112L97.9416 16.32L99.6936 16.044L99.5736 17.412L95.6976 18.012Z" fill="white"/>
</g>
</g>
<defs>
<filter id="filter0_d" x="28.2726" y="9" width="76.789" height="17.06" filterUnits="userSpaceOnUse" color-interpolation-filters="sRGB">
<feFlood flood-opacity="0" result="BackgroundImageFix"/>
<feColorMatrix in="SourceAlpha" type="matrix" values="0 0 0 0 0 0 0 0 0 0 0 0 0 0 0 0 0 0 127 0"/>
<feOffset dy="4"/>
<feGaussianBlur stdDeviation="2"/>
<feColorMatrix type="matrix" values="0 0 0 0 0 0 0 0 0 0 0 0 0 0 0 0 0 0 0.25 0"/>
<feBlend mode="normal" in2="BackgroundImageFix" result="effect1_dropShadow"/>
<feBlend mode="normal" in="SourceGraphic" in2="effect1_dropShadow" result="shape"/>
</filter>
<clipPath id="clip0">
<rect width="103" height="27" fill="white"/>
</clipPath>
<clipPath id="clip1">
<rect x="3" y="3" width="26" height="21" rx="1" fill="white"/>
</clipPath>
</defs>
</svg>
